<mxfile host="app.diagrams.net" modified="2023-07-27T01:20:50.466Z" agent="Mozilla/5.0 (Windows NT 10.0; Win64; x64) AppleWebKit/537.36 (KHTML, like Gecko) Chrome/115.0.0.0 Safari/537.36 Edg/115.0.1901.183" version="21.6.5" etag="ivn49_CCzA-yvkVFOP2J" type="github">
  <diagram name="第 1 页" id="SrR5FVXCAKtj8jg7Re0j">
    <mxGraphModel>
      <root>
        <mxCell id="0" />
        <mxCell id="1" parent="0" />
      </root>
    </mxGraphModel>
  </diagram>
</mxfile>
